<svg width="13" height="18" viewBox="0 0 13 18" fill="none" xmlns="http://www.w3.org/2000/svg">
<path fill-rule="evenodd" clip-rule="evenodd" d="M6.20694 0C4.49837 0 3.10347 1.3949 3.10347 3.10347C3.10347 5.15821 1.80744 6.96677 0.797075 8.75594C0.289806 9.65421 0 10.6905 0 11.7931C0 15.2136 2.78635 18 6.20694 18C9.62754 18 12.4139 15.2136 12.4139 11.7931C12.4139 10.6904 12.1241 9.65412 11.6169 8.7559C10.6065 6.96674 9.31042 5.15821 9.31042 3.10347C9.31042 1.3949 7.91552 0 6.20694 0ZM6.20694 1.24139C7.24925 1.24139 8.06903 2.06117 8.06903 3.10347V3.98103C8.06903 4.91797 7.14388 5.58624 6.20694 5.58624C5.27001 5.58624 4.34486 4.91797 4.34486 3.98103V3.10347C4.34486 2.06117 5.16464 1.24139 6.20694 1.24139ZM6.20694 6.82764C8.95669 6.82764 11.1725 9.04345 11.1725 11.7932C11.1725 14.5429 8.95669 16.7588 6.20694 16.7588C3.4572 16.7588 1.24139 14.5429 1.24139 11.7932C1.24139 9.04345 3.4572 6.82764 6.20694 6.82764Z" fill="#757575"/>
<path fill-rule="evenodd" clip-rule="evenodd" d="M6.20681 9.31055C5.18571 9.31055 4.34473 10.1515 4.34473 11.1726C4.34473 11.4978 4.42998 11.8048 4.5792 12.0721C4.97369 12.7787 5.58612 13.4668 5.58612 14.2761C5.58612 14.6189 5.86404 14.8968 6.20681 14.8968C6.54958 14.8968 6.8275 14.6189 6.8275 14.2761C6.8275 13.4668 7.43993 12.7787 7.83442 12.0721C7.98364 11.8048 8.06889 11.4978 8.06889 11.1726C8.06889 10.1515 7.22791 9.31055 6.20681 9.31055ZM6.20681 10.5519C6.55692 10.5519 6.8275 10.8225 6.8275 11.1726C6.8275 11.5227 6.55692 11.7933 6.20681 11.7933C5.8567 11.7933 5.58612 11.5227 5.58612 11.1726C5.58612 10.8225 5.8567 10.5519 6.20681 10.5519Z" fill="#757575"/>
</svg>
