<?xml version="1.0" encoding="UTF-8"?>
<svg version="1.1" viewBox="0 0 2048 716" width="1000" height="350" xmlns="http://www.w3.org/2000/svg">
<path transform="translate(189,118)" d="m0 0h17l15 2 16 5 12 5 13 8 10 8 11 11 11 16 7 15 4 12 2 11 1 89 19 19 11 16 8 14 8 20 4 14 2 10 2 20v14l-2 19-5 21-8 19-9 17-10 14-11 13-7 7-17 13-17 11-23 10-22 6-26 3h-3-5-3l-3 1-1-1-26-3-21-6-21-9-10-6-11-7-13-11-10-9-10-12-7-10-8-13-8-18-5-15-4-18-1-8v-35l4-20 7-21 6-13 7-12 10-14 12-14 11-10 10-8 3-2-2-6-7-14-5-17-2-12-1-5v-16l4-19 6-16 8-14 11-14 9-9 14-10 18-9 22-6zm8 17-4 1-12 1-20 6-11 6-14 10-7 7-6 8-8 14-5 13-3 14v20l3 16 5 13 6 11 10 13 10 9 16 10 10 4 12 4 13 1 5 1 17 1 16 4 12 5 15 8 7 6h2v2l7 5 9 11 9 15 6 16 3 13 1 14v3l-1 19-3 8-2 8-11 21-11 13-10 9-10 7-21 10-16 4-9 1h-19l-20-4-16-6-14-8-12-11-9-9-10-15-8-20-2-8-1-9-1-2v-18l3-16 6-18 10-16 8-10 8-8 24-16v-2l-15-8-11-8-10-9-9 6-14 12-7 7-9 12-9 14-7 15-4 11-4 14-2 16v25l3 18 4 15 6 15 7 13 11 16 12 13 10 9 14 10 10 6 20 8 17 5 16 3h30l20-4 20-6 22-11 11-8 11-9 7-6 9-11 7-10 6-10 8-16 5-16 3-13 2-16v-12l-4-28-6-20-8-16-8-13-10-13-14-14-12-9-15-9-15-7-15-5-19-4-21-1h-3l-11-2-10-4-12-9-6-7-7-14-2-8v-18l5-14 6-9 8-8 12-7 16-4h9l12 2 10 4 12 9 7 9 4 8 3 11 1 51 6 4 12 5 13 7 8 4v-56l-2-21-5-16-9-17-11-12-9-9-11-7-13-6-14-4-17-1zm-5 53-12 5-9 7-5 7-3 11v11l4 10 6 9 11 7 12 3 19 1 18 3v-47l-4-10-8-9-10-6-9-2zm5 146-19 2-16 6-13 7-13 11-9 11-8 14-4 10-2 10-1 15 2 17 4 13 8 15 8 10 10 10 11 7 14 7 16 4h26l5-1 18-6 11-6 13-10 8-9 9-13 6-15 3-15v-15l-2-14-6-16-6-11-7-9-8-8-10-7-10-6-13-5-10-2z" fill="#106AB3"/>
<path transform="translate(1834,396)" d="m0 0h40l5 3 12 15 14 19 13 16 12 16 14 18 5 7 5 1v-94l10-1h35l3 2v180l-1 3h-40l-9-11-13-17-12-15-9-12-8-10-12-16-9-11-5-7-3 1-1 97-1 1h-46l-1-2v-182z" fill="#0F69B3"/>
<path transform="translate(1539,162)" d="m0 0h71l19 3 19 9 13 12 9 13 4 12 1 5v21l-5 16-7 12-7 7-8 6-1 4 7 12 11 15 21 32-1 5-1 1h-52l-16-24-15-23-6-9-20-1 1 6v48l-3 3h-46l-1-1v-182l1-1zm39 46-3 4v33l2 4 5 1h19l11-1 8-5 4-6 2-6v-8l-4-9-6-5-5-2z" fill="#0F69B3"/>
<path transform="translate(1629,396)" d="m0 0h112l12 1v43l-3 2h-82v21l1 4h76l2 1v40l-61 1h-16l-2 3v20l1 3 83 1 3 2v41l-2 2h-135l-1-3v-177l1-4z" fill="#106AB3"/>
<path transform="translate(1768,162)" d="m0 0h99l13 1 1 2v39l-1 3-2 1h-82v25h77l2 1v39l-1 1-78 1v28h86l1 1v43h-137l-1-2v-181l1-1z" fill="#0F69B3"/>
<path transform="translate(1320,162)" d="m0 0h17l12 1 2 2 1 104 2 13 4 10 4 5 10 5 4 1h15l8-2 8-6 5-8 2-6 1-12 1-2 1-103 1-1 30-1 17 1 1 1 1 20v79l-1 21-5 18-4 9-7 11-10 10-11 7-15 7-15 3-8 1h-17l-17-3-16-6-13-9-9-8-10-15-5-14-2-9-1-12v-109l2-2z" fill="#1069B3"/>
<path transform="translate(1394,396)" d="m0 0h138l6 1 1 2v22 3l1 3v3l-3 8-11 13-12 13-7 8-9 10-9 11-14 15-7 8-12 14v4l2 1h42l40 1 1 1v39l-2 5h-154l-2-2v-33l8-10 9-9 7-9 8-8 6-8 10-10 6-8 10-10 7-9 9-9 7-10v-4h-77l-2-2-1-11v-26l1-6z" fill="#106AB3"/>
<path transform="translate(723,160)" d="m0 0h24l19 4 12 5 10 6 11 9 2 5-3 5-11 9-11 10-3 2h-7l-2-4-6-2-10-4-13-1-10 1-7 4-1 2v7l2 4 7 4 18 5 20 6 14 6 11 7 10 9 7 10 3 10 1 11v3l-2 15-3 10-8 11-9 8-16 8-16 4-10 1h-19l-19-3-16-5-13-7-11-8-8-9-3-4 1-6 16-13 13-9h6l7 7 11 7 12 4 10 1 4 1 7-1 8-2 5-3 2-2 1-8-2-4-14-7-12-3-8-3-8-2-16-7-12-7-11-11-6-11-3-14v-13l3-11 6-12 8-9 14-9 14-5z" fill="#0F69B3"/>
<path transform="translate(875,162)" d="m0 0h120l9 1 1 1v45l-1 1-11 1-51 1-1 4 9 10 9 11 10 11 2 3-1 5-8 10-6 7-7 8-7 9-5 5v5l9 1h59l3 2 1 10v29l-3 5h-136l-1-1v-34l9-11 12-14 11-14 12-14 4-7-4-6-12-13-7-8-12-14-11-12-2-3v-31l2-2z" fill="#1069B3"/>
<path transform="translate(1159,160)" d="m0 0h16l15 2 20 7 12 7 13 10 6 6 1 5-12 12-8 6-10 8-4-1-6-4-8-6-13-5-10-1h-10l-12 3-11 6-7 6-6 8-5 12-1 4v20l4 12 7 11 9 8 10 5 12 3h12l13-3 16-8 7-7 5 2 15 13 11 9 2 3-1 5-7 7-8 6-13 8-13 6-11 3-16 2h-12l-17-2-18-6-16-8-13-10-8-8-8-12-8-15-4-14-2-11v-20l5-20 6-14 7-10 7-8 10-10 15-10 13-6 15-4z" fill="#1069B3"/>
<path transform="translate(754,393)" d="m0 0 14 1 16 3 16 6 9 5 11 8 12 11-1 5-11 10-11 9-8 6-5-2-4-4-9-5-9-4-16-3-9 1-13 4-9 5-7 6-7 10-4 11-1 5v14l2 10 6 12 9 10 9 6 11 4h23l11-4 11-6 7-5 1-2 4 1 11 9 14 12 5 4-1 4-7 8-10 8-23 12-21 5h-32l-20-6-19-10-8-6-11-10-9-12-8-15-4-13-2-10v-24l3-15 5-12 8-15 11-13 11-9 14-9 18-7 8-2z" fill="#0F69B3"/>
<path transform="translate(191,348)" d="m0 0h14l15 3 19 9 10 8 7 8 8 13 4 11 2 9v18l-4 16-8 15-6 8-10 9-14 8-9 4-12 2h-17l-15-3-12-5-13-10-7-7-9-13-4-10-3-12v-21l5-16 7-13 7-9 9-8 9-6 17-6z" fill="#0F69B3"/>
<path transform="translate(1035,396)" d="m0 0h138l6 1 1 4v28l-1 11-2 2-45 1-1 137-1 1h-48l-1-1-1-138h-47l-2-3-1-5v-30l2-7z" fill="#116AB3"/>
<path transform="translate(888,396)" d="m0 0h59l9 1 1 1v182l-1 1h-48l-1-1-1-138h-25l-2-2v-41l1-2z" fill="#0F69B3"/>
<path transform="translate(1266,396)" d="m0 0h30l9 1 1 1v182l-2 1h-46l-2-2v-181l1-1z" fill="#0F69B3"/>
<path transform="translate(507,115)" d="m0 0h11v468h-10l-1-1z" fill="#2476B9"/>
<path transform="translate(197,389)" d="m0 0 4 1 12 19 14 22 1 3-3 2h-56l1-6 16-26 10-14z" fill="#FEFFFF"/>
<path transform="translate(281,499)" d="m0 0 7 6 5 5-1 4-3 3-5-1-6-7v-2h-2l1-4z" fill="#196FB6"/>
<path transform="translate(249,297)" d="m0 0 9 2-1 5-6 12-6-2-2-1 3-10z" fill="#166DB5"/>
<path transform="translate(316,411)" d="m0 0h16l1 7-1 3h-10l-7-2-1-4z" fill="#146CB4"/>
<path transform="translate(64,409)" d="m0 0h17l1 1v7l-1 1h-17z" fill="#136BB4"/>
<path transform="translate(295,327)" d="m0 0 6 5 1 3-13 10-4-2-2-4z" fill="#136BB4"/>
<path transform="translate(115,313)" d="m0 0h2l9 12v4l-5 3-8-7-3-5 2-4z" fill="#136BB4"/>
<path transform="translate(113,497)" d="m0 0 6 5-2 4-8 8-1 2-4-2-3-3 2-4z" fill="#0F69B3"/>
<path transform="translate(281,315)" d="m0 0 8 5-2 4-9 9-4-1-3-3 2-4z" fill="#156CB4"/>
<path transform="translate(124,509)" d="m0 0 5 2 2 1-1 4-4 6-3 5-5-1-4-3 2-4z" fill="#166DB5"/>
<path transform="translate(102,485)" d="m0 0h2l3 5-2 4-9 8-4-1-4-6z" fill="#156CB4"/>
<path transform="translate(67,390)" d="m0 0 11 2 6 1-1 9-14-2-4-1z" fill="#1E72B7"/>
<path transform="translate(178,287)" d="m0 0h7l1 1 1 16-8 1-1-1-2-11v-5z" fill="#136BB4"/>
<path transform="translate(315,358)" d="m0 0h3l3 6v2l-12 6-5-1-2-6 7-4z" fill="#1B70B6"/>
<path transform="translate(266,305)" d="m0 0 6 2 2 4-9 12-4-1-3-1 1-5 6-10z" fill="#126AB3"/>
<path transform="translate(224,530)" d="m0 0 2 3 3 11v4l-9 1-2-8-1-9z" fill="#1C71B7"/>
<path transform="translate(168,530)" d="m0 0 7 1 1 1-1 10-2 7-7-1-2-3z" fill="#166DB5"/>
<path transform="translate(81,442)" d="m0 0 4 1 1 7-16 5-3-7v-2z" fill="#126AB3"/>
<path transform="translate(78,356)" d="m0 0 5 1 12 6-3 7-5-1-12-5 2-6z" fill="#166DB5"/>
<path transform="translate(307,342)" d="m0 0h2l3 5v3l-11 7-4 1-4-6 10-8z" fill="#126AB3"/>
<path transform="translate(90,340)" d="m0 0 4 2 9 7v4l-3 3-4-1-10-7 1-5z" fill="#156CB4"/>
<path transform="translate(231,291)" d="m0 0 8 1 1 4-4 13-7-1-2-3z" fill="#156CB4"/>
<path transform="translate(138,518)" d="m0 0 5 1 2 4-7 14-7-3-1-3z" fill="#186EB6"/>
<path transform="translate(94,473)" d="m0 0h2l3 5-1 3-11 7-4-1-3-5v-2z" fill="#126AB4"/>
<path transform="translate(315,428)" d="m0 0 16 1 1 1-1 8h-8l-10-2 1-7z" fill="#126AB4"/>
<path transform="translate(72,372)" d="m0 0 9 3 7 3-1 5-1 3-11-3-5-2-1-2z" fill="#126AB4"/>
<path transform="translate(213,287)" d="m0 0 10 1-3 15-1 2h-7l-1-3z" fill="#166DB5"/>
<path transform="translate(238,526)" d="m0 0h3l5 13-1 4-7 2-5-15v-2z" fill="#136BB4"/>
<path transform="translate(300,474)" d="m0 0 5 2 10 5-1 5-2 4-5-2-10-7 2-6z" fill="#166DB5"/>
<path transform="translate(312,444)" d="m0 0 16 3 1 3-2 7-17-5 1-7z" fill="#156CB5"/>
<path transform="translate(327,392)" d="m0 0 3 1 1 8-9 2h-8l-1-1v-7z" fill="#156CB5"/>
<path transform="translate(152,525)" d="m0 0 5 1 3 1-1 7-4 10-7-2-1-4z" fill="#136CB4"/>
<path transform="translate(291,487)" d="m0 0 9 6 5 4-2 5-2 3-4-2-7-6-3-2 2-5z" fill="#136CB4"/>
<path transform="translate(307,460)" d="m0 0 7 1 9 4-1 6-1 2-9-2-8-4z" fill="#136CB4"/>
<path transform="translate(88,458)" d="m0 0 2 1 2 7-13 5-4 1-2-5v-4z" fill="#126BB4"/>
<path transform="translate(324,374)" d="m0 0 2 2 1 7-8 3-9 1-1-7 12-5z" fill="#126BB4"/>
<path transform="translate(267,511)" d="m0 0 4 1 7 9 1 4-4 3-5-1-8-12z" fill="#156DB5"/>
<path transform="translate(74,426)" d="m0 0h8l1 7-5 2-5 1h-7l-2-4 1-5z" fill="#136CB4"/>
<path transform="translate(206,533)" d="m0 0 3 1 2 16-8 2-2-2v-16z" fill="#186FB6"/>
<path transform="translate(185,533)" d="m0 0h6l1 1v16l-1 1-8-1-1-2 2-13z" fill="#1F73B8"/>
<path transform="translate(195,286)" d="m0 0h8l1 6-1 12h-7l-1-1z" fill="#106AB3"/>
<path transform="translate(254,519)" d="m0 0h2l7 13v3l-7 3-4-6-4-10z" fill="#176EB5"/>
<path transform="translate(102,326)" d="m0 0 7 6 5 5-2 5-4 1-12-10z" fill="#126BB4"/>
</svg>
